# xmcd CD database file
#
# Track frame offsets:
#	150
#	20400
#	41175
#
# Disc length: 815 seconds
#
# Revision: 1
# Processed by: cddbd v1.5.1PL0 Copyright (c) Steve Scherf et al.
# Submitted via: CDex 1.51
#
DISCID=1f032d03
DTITLE=遠藤響子 - 走れ走れ
DYEAR=1999
DGENRE=アニメ
TTITLE0=走れ走れ
TTITLE1=眠ってる
TTITLE2=走れ走れ(karaoke)
EXTD=YEAR: 1999
EXTT0=
EXTT1=
EXTT2=
PLAYORDER=
